<svg aria-hidden="true" style="position: absolute; width: 0; height: 0; overflow: hidden;" version="1.1" xmlns="http://www.w3.org/2000/svg" xmlns:xlink="http://www.w3.org/1999/xlink">
<defs>
<symbol id="icon-conversation" viewBox="0 0 32 32">
<path d="M27.2 17.6v4.8l-4.8-4.8h-9.6c-1.767 0-3.2-1.433-3.2-3.2v0-11.2c0-1.76 1.44-3.2 3.2-3.2h16c1.767 0 3.2 1.433 3.2 3.2v0 11.2c0 1.767-1.433 3.2-3.2 3.2v0zM22.4 20.8v3.2c0 1.767-1.433 3.2-3.2 3.2v0h-9.6l-4.8 4.8v-4.8h-1.6c-1.767 0-3.2-1.433-3.2-3.2v0-11.2c0-1.76 1.44-3.2 3.2-3.2h3.2v4.8c0 3.535 2.865 6.4 6.4 6.4v0z"></path>
</symbol>
<symbol id="icon-gavel" viewBox="0 0 32 32">
<path d="M8.109 1.529l-6.758 11.699 3.486 2.012 6.758-11.699zM11.607 5.857l-4.727 8.18 13.524 7.805 4.724-8.18zM16.824 5.9l-0.701 1.215 5.311 3.064 0.703-1.217zM27.141 12.514l-6.756 11.699 3.486 2.012 6.756-11.699-3.486-2.012zM10.232 17.32l-0.705 1.221 5.311 3.063 0.703-1.219-5.309-3.064zM10.039 20.186l-6.207 10.74h4.197l5.143-8.936-3.133-1.805z"></path>
</symbol>
<symbol id="icon-justice" viewBox="0 0 32 32">
<path d="M25.215 1.442s-4.431 3.547-7.38 4.407c-2.949 0.86-4.415-0.967-4.415-0.967s0.916 2.155-1.239 4.343c-2.155 2.188-7.382 4.408-7.382 4.408l-0.148 0.871 0.403 0.508-3.219 8.525c-0.038 0.069-0.037 0.131-0.037 0.207 0 1.181 0.516 2.14 1.271 2.75s1.723 0.894 2.684 0.895c0.961 0 1.93-0.285 2.686-0.895s1.271-1.568 1.271-2.75c0.012-0.084-0.012-0.145-0.043-0.221l-3.434-8.414c0.004-0.086 0.015-0.178 0.097-0.375 1.271-0.978 4.344-3.215 6.644-3.856 1.184-0.33 2.224 0.033 2.188 0.434l-1.671 11.786 1.338 1.894c-1.109 0.484-2.037 1.552-2.348 3.209-3.505 0.387-5.967 1.296-5.967 2.356h19.492c0-1.059-2.462-1.968-5.967-2.356-0.307-1.663-1.223-2.757-2.324-3.244l1.313-1.859-1.921-12.162c0.261-1.198 1.132-2.667 1.805-3.603 1.014-1.401 6.764-4.103 6.854-4.006l-3.434 8.414c-0.031 0.076-0.055 0.136-0.043 0.221 0 1.182 0.516 2.14 1.271 2.75s1.725 0.895 2.686 0.895c0.961-0 1.928-0.285 2.683-0.895s1.272-1.569 1.272-2.75c0-0.076 0-0.138-0.037-0.207l-3.24-8.582c0.061-0.304 0.249-0.535 0.443-0.752l-0.74-0.924zM26.356 4.975l2.558 6.773h-5.322zM5.644 16.759l2.764 6.773h-5.322z"></path>
</symbol>
<symbol id="icon-office" viewBox="0 0 32 32">
<path d="M28 30v-22h-6v-6h-18v28h-4v2h14v-6h4v6h14v-2zM12 22h-4v-4h4zM12 16h-4v-4h4zM12 10h-4v-4h4zM18 22h-4v-4h4zM18 16h-4v-4h4zM18 10h-4v-4h4zM26 22h-4v-4h4zM26 16h-4v-4h4z"></path>
</symbol>
<symbol id="icon-post-office" viewBox="0 0 32 32">
<path d="M15.5 6.98c1.242 0 2.281 0.907 2.477 2.094l0.003 0.797c-0.195 1.205-1.226 2.115-2.47 2.119h-0c0 0 0 0-0 0-1.383 0-2.504-1.118-2.51-2.499v-0.001c0 0 0 0 0-0 0-1.383 1.118-2.504 2.499-2.51h0.001z"></path>
<path d="M19.010 30v-4.62c0-0.76-0.62-1.38-1.38-1.38h-3.26c-0.76 0-1.37 0.61-1.37 1.37v4.63h-3v-4c0-0.55-0.22-1.050-0.58-1.42-0.37-0.36-0.87-0.58-1.42-0.58-1.105 0-2 0.895-2 2v0 4h-3v-18c-0.552 0-1-0.448-1-1s0.448-1 1-1v0h5v-5.8c0-0.067 0.003-0.134 0.009-0.2h-0.009c-0.55 0-1-0.45-1-1s0.45-1 1-1h16c0.55 0 1 0.45 1 1s-0.45 1-1 1h-0.009c0.006 0.066 0.009 0.133 0.009 0.2v5.8h5c0.552 0 1 0.448 1 1s-0.448 1-1 1v0 18zM18.97 7.040c0-0.66 0.26-1.3 0.73-1.77 0.090-0.090 0.020-0.26-0.11-0.27l-2.25 0.010c-0.002-0-0.005-0-0.008-0-0.083 0-0.15 0.067-0.15 0.15 0 0.044 0.019 0.083 0.048 0.11l0 0c0.458 0.458 0.726 1.078 0.74 1.72-0.633-0.625-1.503-1.012-2.464-1.012-1.936 0-3.506 1.57-3.506 3.506 0 0.002 0 0.004 0 0.006v-0c0 0.98 0.4 1.87 1.070 2.5h-1.56c-0.28 0-0.5 0.23-0.5 0.5 0 0.28 0.23 0.5 0.5 0.5l4-0.010c0.17 0 0.34-0.010 0.5-0.040 1.533-0.223 2.73-1.418 2.955-2.931l0.002-0.019h0.013v-0.077c0.022-0.143 0.030-0.293 0.030-0.443-0.002-0.162-0.014-0.319-0.035-0.473l0.002 0.019zM11.5 18h3.010c0.27 0 0.49-0.22 0.5-0.5v-2.010c0-0.28-0.23-0.5-0.5-0.5h-3.010c-0.28 0-0.5 0.23-0.5 0.5v2.010c0 0.28 0.23 0.5 0.5 0.5zM20.51 18c0.27 0 0.49-0.22 0.5-0.5v-2.010c0-0.28-0.23-0.5-0.5-0.5h-3.010c-0.28 0-0.5 0.23-0.5 0.5v2.010c0 0.28 0.23 0.5 0.5 0.5zM11.5 22h3.010c0.27 0 0.49-0.22 0.5-0.5v-2.010c0-0.28-0.23-0.5-0.5-0.5h-3.010c-0.28 0-0.5 0.23-0.5 0.5v2.010c0 0.28 0.23 0.5 0.5 0.5zM20.51 22c0.27 0 0.49-0.22 0.5-0.5v-2.010c0-0.28-0.23-0.5-0.5-0.5h-3.010c-0.28 0-0.5 0.23-0.5 0.5v2.010c0 0.28 0.23 0.5 0.5 0.5zM6.4 21c0.33 0 0.6-0.27 0.61-0.61v-4.78c0-0.34-0.27-0.61-0.61-0.61h-1.78c-0.34 0-0.61 0.27-0.61 0.61v4.78c0 0.34 0.27 0.61 0.61 0.61zM27.4 21c0.33 0 0.6-0.27 0.61-0.61v-4.78c0-0.34-0.27-0.61-0.61-0.61h-1.78c-0.34 0-0.61 0.27-0.61 0.61v4.78c0 0.34 0.27 0.61 0.61 0.61z"></path>
<path d="M9 30v-0.45c0-0.3-0.25-0.55-0.55-0.55h-0.9c-0.3 0-0.55 0.25-0.55 0.55v0.45zM7.5 26c-0.28 0-0.5-0.22-0.5-0.5s0.22-0.5 0.5-0.5h1c0.28 0 0.5 0.22 0.5 0.5s-0.22 0.5-0.5 0.5z"></path>
</symbol>
<symbol id="icon-users" viewBox="0 0 32 32">
<path d="M21.053 20.8c-1.132-0.453-1.584-1.698-1.584-1.698s-0.51 0.282-0.51-0.51 0.51 0.51 1.020-2.548c0 0 1.413-0.397 1.13-3.68h-0.34s0.85-3.51 0-4.7c-0.85-1.188-1.188-1.98-3.057-2.547s-1.188-0.454-2.547-0.396c-1.36 0.058-2.492 0.793-2.492 1.19 0 0-0.85 0.056-1.188 0.396-0.34 0.34-0.906 1.924-0.906 2.32s0.283 3.060 0.566 3.625l-0.337 0.114c-0.284 3.283 1.13 3.68 1.13 3.68 0.51 3.058 1.020 1.756 1.020 2.548s-0.51 0.51-0.51 0.51-0.452 1.245-1.584 1.698c-1.132 0.452-7.416 2.886-7.927 3.396-0.512 0.51-0.454 2.888-0.454 2.888h26.947s0.060-2.377-0.452-2.888c-0.51-0.51-6.795-2.944-7.927-3.396zM8.583 20.628c-0.1-0.18-0.148-0.31-0.148-0.31s-0.432 0.24-0.432-0.432 0.432 0.432 0.864-2.16c0 0 1.2-0.335 0.96-3.118h-0.29s0.144-0.59 0.238-1.334c-0.001-0.038-0.001-0.082-0.001-0.127 0-0.306 0.014-0.609 0.041-0.908l-0.003 0.039 0.038-0.426c-0.020-0.492-0.107-0.94-0.312-1.226-0.72-1.007-1.008-1.68-2.59-2.16-1.584-0.48-1.010-0.384-2.16-0.335-1.152 0.050-2.112 0.672-2.112 1.010 0 0-0.72 0.047-1.008 0.335-0.27 0.27-0.705 1.462-0.757 1.885v0.28c0.048 0.654 0.26 2.45 0.47 2.873l-0.286 0.096c-0.24 2.782 0.96 3.118 0.96 3.118 0.43 2.59 0.863 1.488 0.863 2.16s-0.432 0.43-0.432 0.43-0.383 1.058-1.343 1.44l-0.232 0.092v5.234h0.575c-0.030-1.278 0.077-2.927 0.746-3.594 0.357-0.355 1.524-0.94 6.353-2.862zM30.913 11.572c-0.040-0.378-0.127-0.715-0.292-0.946-0.718-1.008-1.007-1.68-2.59-2.16s-1.007-0.384-2.16-0.335c-1.15 0.050-2.11 0.672-2.11 1.010 0 0-0.72 0.047-1.008 0.335-0.27 0.272-0.71 1.472-0.758 1.89h0.033l0.080 0.914c0.020 0.23 0.022 0.435 0.027 0.644 0.090 0.666 0.21 1.35 0.33 1.59l-0.286 0.095c-0.24 2.782 0.96 3.118 0.96 3.118 0.432 2.59 0.863 1.488 0.863 2.16s-0.43 0.43-0.43 0.43-0.054 0.143-0.164 0.34c4.77 1.9 5.927 2.48 6.28 2.833 0.67 0.668 0.774 2.316 0.745 3.595h0.48v-5.305l-0.050-0.022c-0.96-0.383-1.344-1.44-1.344-1.44s-0.433 0.24-0.433-0.43 0.433 0.43 0.864-2.16c0 0 0.804-0.23 0.963-1.84v-1.228c0-0.018 0-0.033-0.003-0.050h-0.29s0.216-0.89 0.293-1.862z"></path>
</symbol>
</defs>
</svg>
