<svg aria-hidden="true" style="position: absolute; width: 0; height: 0; overflow: hidden;" version="1.1" xmlns="http://www.w3.org/2000/svg" xmlns:xlink="http://www.w3.org/1999/xlink">
<defs>
<symbol id="icon-conversation" viewBox="0 0 32 32">
<path d="M27.2 17.6v4.8l-4.8-4.8h-9.6c-1.767 0-3.2-1.433-3.2-3.2v0-11.2c0-1.76 1.44-3.2 3.2-3.2h16c1.767 0 3.2 1.433 3.2 3.2v0 11.2c0 1.767-1.433 3.2-3.2 3.2v0zM22.4 20.8v3.2c0 1.767-1.433 3.2-3.2 3.2v0h-9.6l-4.8 4.8v-4.8h-1.6c-1.767 0-3.2-1.433-3.2-3.2v0-11.2c0-1.76 1.44-3.2 3.2-3.2h3.2v4.8c0 3.535 2.865 6.4 6.4 6.4v0z"></path>
</symbol>
<symbol id="icon-gavel" viewBox="0 0 32 32">
<path d="M8.109 1.529l-6.758 11.699 3.486 2.012 6.758-11.699zM11.607 5.857l-4.727 8.18 13.524 7.805 4.724-8.18zM16.824 5.9l-0.701 1.215 5.311 3.064 0.703-1.217zM27.141 12.514l-6.756 11.699 3.486 2.012 6.756-11.699-3.486-2.012zM10.232 17.32l-0.705 1.221 5.311 3.063 0.703-1.219-5.309-3.064zM10.039 20.186l-6.207 10.74h4.197l5.143-8.936-3.133-1.805z"></path>
</symbol>
<symbol id="icon-justice" viewBox="0 0 32 32">
<path d="M25.215 1.442s-4.431 3.547-7.38 4.407c-2.949 0.86-4.415-0.967-4.415-0.967s0.916 2.155-1.239 4.343c-2.155 2.188-7.382 4.408-7.382 4.408l-0.148 0.871 0.403 0.508-3.219 8.525c-0.038 0.069-0.037 0.131-0.037 0.207 0 1.181 0.516 2.14 1.271 2.75s1.723 0.894 2.684 0.895c0.961 0 1.93-0.285 2.686-0.895s1.271-1.568 1.271-2.75c0.012-0.084-0.012-0.145-0.043-0.221l-3.434-8.414c0.004-0.086 0.015-0.178 0.097-0.375 1.271-0.978 4.344-3.215 6.644-3.856 1.184-0.33 2.224 0.033 2.188 0.434l-1.671 11.786 1.338 1.894c-1.109 0.484-2.037 1.552-2.348 3.209-3.505 0.387-5.967 1.296-5.967 2.356h19.492c0-1.059-2.462-1.968-5.967-2.356-0.307-1.663-1.223-2.757-2.324-3.244l1.313-1.859-1.921-12.162c0.261-1.198 1.132-2.667 1.805-3.603 1.014-1.401 6.764-4.103 6.854-4.006l-3.434 8.414c-0.031 0.076-0.055 0.136-0.043 0.221 0 1.182 0.516 2.14 1.271 2.75s1.725 0.895 2.686 0.895c0.961-0 1.928-0.285 2.683-0.895s1.272-1.569 1.272-2.75c0-0.076 0-0.138-0.037-0.207l-3.24-8.582c0.061-0.304 0.249-0.535 0.443-0.752l-0.74-0.924zM26.356 4.975l2.558 6.773h-5.322zM5.644 16.759l2.764 6.773h-5.322z"></path>
</symbol>
<symbol id="icon-office" viewBox="0 0 32 32">
<path d="M28 30v-22h-6v-6h-18v28h-4v2h14v-6h4v6h14v-2zM12 22h-4v-4h4zM12 16h-4v-4h4zM12 10h-4v-4h4zM18 22h-4v-4h4zM18 16h-4v-4h4zM18 10h-4v-4h4zM26 22h-4v-4h4zM26 16h-4v-4h4z"></path>
</symbol>
<symbol id="icon-post-office" viewBox="0 0 32 32">
<path d="M15.5 6.98c1.242 0 2.281 0.907 2.477 2.094l0.003 0.797c-0.195 1.205-1.226 2.115-2.47 2.119h-0c0 0 0 0-0 0-1.383 0-2.504-1.118-2.51-2.499v-0.001c0 0 0 0 0-0 0-1.383 1.118-2.504 2.499-2.51h0.001z"></path>
<path d="M19.010 30v-4.62c0-0.76-0.62-1.38-1.38-1.38h-3.26c-0.76 0-1.37 0.61-1.37 1.37v4.63h-3v-4c0-0.55-0.22-1.050-0.58-1.42-0.37-0.36-0.87-0.58-1.42-0.58-1.105 0-2 0.895-2 2v0 4h-3v-18c-0.552 0-1-0.448-1-1s0.448-1 1-1v0h5v-5.8c0-0.067 0.003-0.134 0.009-0.2h-0.009c-0.55 0-1-0.45-1-1s0.45-1 1-1h16c0.55 0 1 0.45 1 1s-0.45 1-1 1h-0.009c0.006 0.066 0.009 0.133 0.009 0.2v5.8h5c0.552 0 1 0.448 1 1s-0.448 1-1 1v0 18zM18.97 7.040c0-0.66 0.26-1.3 0.73-1.77 0.090-0.090 0.020-0.26-0.11-0.27l-2.25 0.010c-0.002-0-0.005-0-0.008-0-0.083 0-0.15 0.067-0.15 0.15 0 0.044 0.019 0.083 0.048 0.11l0 0c0.458 0.458 0.726 1.078 0.74 1.72-0.633-0.625-1.503-1.012-2.464-1.012-1.936 0-3.506 1.57-3.506 3.506 0 0.002 0 0.004 0 0.006v-0c0 0.98 0.4 1.87 1.070 2.5h-1.56c-0.28 0-0.5 0.23-0.5 0.5 0 0.28 0.23 0.5 0.5 0.5l4-0.010c0.17 0 0.34-0.010 0.5-0.040 1.533-0.223 2.73-1.418 2.955-2.931l0.002-0.019h0.013v-0.077c0.022-0.143 0.030-0.293 0.030-0.443-0.002-0.162-0.014-0.319-0.035-0.473l0.002 0.019zM11.5 18h3.010c0.27 0 0.49-0.22 0.5-0.5v-2.010c0-0.28-0.23-0.5-0.5-0.5h-3.010c-0.28 0-0.5 0.23-0.5 0.5v2.010c0 0.28 0.23 0.5 0.5 0.5zM20.51 18c0.27 0 0.49-0.22 0.5-0.5v-2.010c0-0.28-0.23-0.5-0.5-0.5h-3.010c-0.28 0-0.5 0.23-0.5 0.5v2.010c0 0.28 0.23 0.5 0.5 0.5zM11.5 22h3.010c0.27 0 0.49-0.22 0.5-0.5v-2.010c0-0.28-0.23-0.5-0.5-0.5h-3.010c-0.28 0-0.5 0.23-0.5 0.5v2.010c0 0.28 0.23 0.5 0.5 0.5zM20.51 22c0.27 0 0.49-0.22 0.5-0.5v-2.010c0-0.28-0.23-0.5-0.5-0.5h-3.010c-0.28 0-0.5 0.23-0.5 0.5v2.010c0 0.28 0.23 0.5 0.5 0.5zM6.4 21c0.33 0 0.6-0.27 0.61-0.61v-4.78c0-0.34-0.27-0.61-0.61-0.61h-1.78c-0.34 0-0.61 0.27-0.61 0.61v4.78c0 0.34 0.27 0.61 0.61 0.61zM27.4 21c0.33 0 0.6-0.27 0.61-0.61v-4.78c0-0.34-0.27-0.61-0.61-0.61h-1.78c-0.34 0-0.61 0.27-0.61 0.61v4.78c0 0.34 0.27 0.61 0.61 0.61z"></path>
<path d="M9 30v-0.45c0-0.3-0.25-0.55-0.55-0.55h-0.9c-0.3 0-0.55 0.25-0.55 0.55v0.45zM7.5 26c-0.28 0-0.5-0.22-0.5-0.5s0.22-0.5 0.5-0.5h1c0.28 0 0.5 0.22 0.5 0.5s-0.22 0.5-0.5 0.5z"></path>
</symbol>
<symbol id="icon-users" viewBox="0 0 32 32">
<path d="M21.053 20.8c-1.132-0.453-1.584-1.698-1.584-1.698s-0.51 0.282-0.51-0.51 0.51 0.51 1.020-2.548c0 0 1.413-0.397 1.13-3.68h-0.34s0.85-3.51 0-4.7c-0.85-1.188-1.188-1.98-3.057-2.547s-1.188-0.454-2.547-0.396c-1.36 0.058-2.492 0.793-2.492 1.19 0 0-0.85 0.056-1.188 0.396-0.34 0.34-0.906 1.924-0.906 2.32s0.283 3.060 0.566 3.625l-0.337 0.114c-0.284 3.283 1.13 3.68 1.13 3.68 0.51 3.058 1.020 1.756 1.020 2.548s-0.51 0.51-0.51 0.51-0.452 1.245-1.584 1.698c-1.132 0.452-7.416 2.886-7.927 3.396-0.512 0.51-0.454 2.888-0.454 2.888h26.947s0.060-2.377-0.452-2.888c-0.51-0.51-6.795-2.944-7.927-3.396zM8.583 20.628c-0.1-0.18-0.148-0.31-0.148-0.31s-0.432 0.24-0.432-0.432 0.432 0.432 0.864-2.16c0 0 1.2-0.335 0.96-3.118h-0.29s0.144-0.59 0.238-1.334c-0.001-0.038-0.001-0.082-0.001-0.127 0-0.306 0.014-0.609 0.041-0.908l-0.003 0.039 0.038-0.426c-0.020-0.492-0.107-0.94-0.312-1.226-0.72-1.007-1.008-1.68-2.59-2.16-1.584-0.48-1.010-0.384-2.16-0.335-1.152 0.050-2.112 0.672-2.112 1.010 0 0-0.72 0.047-1.008 0.335-0.27 0.27-0.705 1.462-0.757 1.885v0.28c0.048 0.654 0.26 2.45 0.47 2.873l-0.286 0.096c-0.24 2.782 0.96 3.118 0.96 3.118 0.43 2.59 0.863 1.488 0.863 2.16s-0.432 0.43-0.432 0.43-0.383 1.058-1.343 1.44l-0.232 0.092v5.234h0.575c-0.030-1.278 0.077-2.927 0.746-3.594 0.357-0.355 1.524-0.94 6.353-2.862zM30.913 11.572c-0.040-0.378-0.127-0.715-0.292-0.946-0.718-1.008-1.007-1.68-2.59-2.16s-1.007-0.384-2.16-0.335c-1.15 0.050-2.11 0.672-2.11 1.010 0 0-0.72 0.047-1.008 0.335-0.27 0.272-0.71 1.472-0.758 1.89h0.033l0.080 0.914c0.020 0.23 0.022 0.435 0.027 0.644 0.090 0.666 0.21 1.35 0.33 1.59l-0.286 0.095c-0.24 2.782 0.96 3.118 0.96 3.118 0.432 2.59 0.863 1.488 0.863 2.16s-0.43 0.43-0.43 0.43-0.054 0.143-0.164 0.34c4.77 1.9 5.927 2.48 6.28 2.833 0.67 0.668 0.774 2.316 0.745 3.595h0.48v-5.305l-0.050-0.022c-0.96-0.383-1.344-1.44-1.344-1.44s-0.433 0.24-0.433-0.43 0.433 0.43 0.864-2.16c0 0 0.804-0.23 0.963-1.84v-1.228c0-0.018 0-0.033-0.003-0.050h-0.29s0.216-0.89 0.293-1.862z"></path>
</symbol>
<symbol id="icon-telegram" viewBox="0 0 32 32">
<path d="M24.644 26.387v-0.003l0.024-0.057 3.999-20.16v-0.064c0-0.503-0.187-0.941-0.589-1.204-0.353-0.231-0.76-0.247-1.045-0.225-0.288 0.027-0.554 0.083-0.807 0.167l0.025-0.007c-0.138 0.044-0.244 0.084-0.348 0.128l0.028-0.011-0.017 0.007-22.3 8.748c-0.080 0.027-0.146 0.055-0.209 0.086l0.011-0.005c-0.175 0.079-0.324 0.164-0.465 0.26l0.010-0.007c-0.287 0.197-0.832 0.661-0.74 1.397 0.076 0.611 0.496 0.997 0.78 1.199 0.155 0.11 0.332 0.208 0.519 0.287l0.018 0.007 0.043 0.019 0.013 0.004 0.009 0.004 3.901 1.313c-0.013 0.244 0.011 0.493 0.076 0.74l1.953 7.412c0.234 0.864 1.011 1.489 1.934 1.489 0.826 0 1.535-0.501 1.84-1.215l0.005-0.013 3.051-3.261 5.239 4.016 0.075 0.032c0.476 0.208 0.92 0.273 1.327 0.219 0.407-0.056 0.729-0.227 0.972-0.42 0.277-0.226 0.498-0.509 0.647-0.832l0.006-0.014 0.011-0.023 0.004-0.008zM9.513 18.5c-0.008-0.031-0.013-0.066-0.013-0.102 0-0.142 0.074-0.266 0.185-0.337l0.002-0.001 13.228-8.4s0.779-0.473 0.751 0c0 0 0.139 0.083-0.279 0.471-0.395 0.369-9.428 9.091-10.343 9.973-0.049 0.048-0.085 0.11-0.102 0.179l-0.001 0.003-1.475 5.627z"></path>
</symbol>
<symbol id="icon-viber" viewBox="0 0 32 32">
<path d="M22.687 3.605l0.044 0.009c2.37 0.544 4.248 2.376 4.869 4.765l-0.040-0.181c0.547 2.097 0.837 4.297 0.837 6.565s-0.291 4.468-0.797 6.385l-0.010 0.046c-0.611 2.343-2.489 4.175-4.902 4.728l-0.453 0.1 0.196-0.038c-2.111 0.485-4.309 0.742-6.567 0.742-0.626 0-1.247-0.020-1.778-0.054l-3.641 3.257c-0.118 0.106-0.274 0.17-0.445 0.17-0.329 0-0.602-0.238-0.657-0.556l-0.62-3.701-0.046-0.011c-2.216-0.631-3.953-2.401-4.546-4.682l0.040 0.181c-0.547-2.097-0.837-4.297-0.837-6.565s0.291-4.468 0.798-6.385l0.010-0.046c0.611-2.343 2.489-4.175 4.902-4.728l0.452-0.1-0.196 0.038c2.111-0.485 4.309-0.741 6.566-0.741s4.456 0.256 6.37 0.703zM10.62 8.269c-0.047-0.007-0.102-0.011-0.158-0.011-0.206 0-0.399 0.057-0.563 0.156l0.005-0.003h-0.019c-0.5 0.293-0.951 0.663-1.335 1.097-0.32 0.369-0.493 0.743-0.539 1.103-0.027 0.213-0.008 0.429 0.055 0.633l0.024 0.013c0.36 1.057 0.829 2.075 1.403 3.032 0.782 1.408 1.68 2.623 2.714 3.707l-0.007-0.007 0.032 0.045 0.051 0.037 0.031 0.036 0.037 0.032c1.081 1.029 2.298 1.932 3.618 2.673l0.091 0.047c1.54 0.839 2.475 1.235 3.036 1.4v0.008c0.164 0.051 0.313 0.073 0.464 0.073 0.499-0.038 0.944-0.241 1.287-0.554l-0.002 0.002c0.433-0.384 0.8-0.836 1.085-1.339v-0.009c0.268-0.507 0.177-0.984-0.209-1.308-0.739-0.649-1.56-1.244-2.433-1.759l-0.075-0.041c-0.597-0.324-1.204-0.128-1.449 0.2l-0.524 0.661c-0.269 0.328-0.757 0.283-0.757 0.283l-0.013 0.008c-3.641-0.929-4.613-4.616-4.613-4.616s-0.045-0.501 0.292-0.757l0.656-0.528c0.315-0.256 0.533-0.861 0.196-1.459-0.552-0.948-1.146-1.768-1.811-2.524l0.015 0.017c-0.145-0.178-0.348-0.304-0.58-0.35l-0.006-0.001zM16.772 6.667c-0.368 0-0.667 0.298-0.667 0.667s0.298 0.667 0.667 0.667v0c1.687 0 3.087 0.551 4.195 1.607 0.569 0.577 1.013 1.261 1.304 2.011 0.292 0.751 0.425 1.552 0.391 2.355-0 0.008-0.001 0.018-0.001 0.028 0 0.368 0.299 0.667 0.667 0.667 0.359 0 0.651-0.283 0.667-0.638l0-0.001c0.004-0.089 0.006-0.194 0.006-0.299 0-0.933-0.179-1.825-0.505-2.643l0.017 0.048c-0.381-0.963-0.925-1.785-1.606-2.473l-0.013-0.013c-1.375-1.313-3.115-1.983-5.123-1.983zM16.727 8.859c-0.368 0-0.667 0.298-0.667 0.667s0.298 0.667 0.667 0.667v0h0.023c1.216 0.087 2.101 0.492 2.721 1.157 0.636 0.685 0.965 1.537 0.94 2.591-0 0.005-0 0.010-0 0.015 0 0.368 0.299 0.667 0.667 0.667 0.363 0 0.658-0.29 0.667-0.651v-0.001c0.032-1.383-0.413-2.576-1.296-3.528v-0.003c-0.903-0.968-2.141-1.48-3.632-1.58l-0.023-0.003zM16.701 11.092c-0.018-0.002-0.038-0.003-0.059-0.003-0.368 0-0.667 0.298-0.667 0.667 0 0.364 0.292 0.661 0.655 0.667h0.001c0.557 0.029 0.913 0.197 1.137 0.423 0.225 0.227 0.393 0.591 0.424 1.16 0.007 0.363 0.303 0.654 0.667 0.654 0.368 0 0.667-0.298 0.667-0.667 0-0.021-0.001-0.041-0.003-0.061l0 0.003c-0.043-0.8-0.293-1.507-0.807-2.027-0.516-0.52-1.219-0.773-2.016-0.816z"></path>
</symbol>
<symbol id="icon-whatsapp" viewBox="0 0 32 32">
<path d="M26.88 9.12c-3.84-5.92-11.68-7.68-17.76-4-5.92 3.68-7.84 11.68-4 17.6l0.32 0.48-1.28 4.8 4.8-1.28 0.48 0.32c2.080 1.12 4.32 1.76 6.56 1.76 2.4 0 4.8-0.64 6.88-1.92 5.92-3.84 7.68-11.68 4-17.76zM23.52 21.44c-0.64 0.96-1.44 1.6-2.56 1.76-0.64 0-1.44 0.32-4.64-0.96-2.72-1.28-4.96-3.36-6.56-5.76-0.96-1.12-1.44-2.56-1.6-4 0-1.28 0.48-2.4 1.28-3.2 0.32-0.32 0.64-0.48 0.96-0.48h0.8c0.32 0 0.64 0 0.8 0.64 0.32 0.8 1.12 2.72 1.12 2.88 0.16 0.16 0.16 0.48 0 0.64 0.16 0.32 0 0.64-0.16 0.8s-0.32 0.48-0.48 0.64c-0.32 0.16-0.48 0.48-0.32 0.8 0.64 0.96 1.44 1.92 2.24 2.72 0.96 0.8 1.92 1.44 3.040 1.92 0.32 0.16 0.64 0.16 0.8-0.16s0.96-1.12 1.28-1.44c0.32-0.32 0.48-0.32 0.8-0.16l2.56 1.28c0.32 0.16 0.64 0.32 0.8 0.48 0.16 0.48 0.16 1.12-0.16 1.6z"></path>
</symbol>
<symbol id="icon-vesi" viewBox="0 0 32 32">
<path d="M14.758 2.44c-2.066 0.285-4.1 1.115-5.754 2.357-0.615 0.463-1.679 1.495-2.18 2.11-1.394 1.724-2.313 3.891-2.611 6.134-0.095 0.741-0.133 2.611-0.044 2.611 0.025 0 0.165-0.063 0.304-0.139l0.26-0.139 0.038-1.141c0.038-1.324 0.171-2.116 0.551-3.282 1.432-4.36 5.272-7.452 9.898-7.965 2.085-0.234 4.239 0.146 6.248 1.103 0.393 0.19 0.951 0.494 1.236 0.684l0.532 0.342 0.266-0.158c0.146-0.089 0.247-0.177 0.215-0.203-0.025-0.025-0.323-0.228-0.653-0.444-1.508-0.989-3.396-1.667-5.259-1.901-0.716-0.082-2.294-0.070-3.048 0.032z"></path>
<path d="M18.313 4.74c-0.133 0.095-0.317 0.108-1.413 0.095-1.21-0.019-1.261-0.013-1.552 0.133-0.165 0.082-0.488 0.33-0.722 0.545-0.45 0.412-0.545 0.444-1.667 0.608-0.329 0.051-0.741 0.488-1.071 1.134-0.26 0.526-0.418 0.678-0.855 0.824-0.38 0.127-0.805 0.482-0.938 0.786-0.057 0.139-0.108 0.488-0.127 0.893-0.032 0.697-0.044 0.621 0.425 2.535 0.082 0.336 0.127 0.684 0.114 0.938l-0.019 0.406-2.63 1.806c-2.021 1.381-2.661 1.787-2.756 1.755-0.266-0.082-0.596-0.095-0.729-0.025-0.076 0.038-0.177 0.171-0.228 0.298-0.266 0.627 0.507 1.141 0.995 0.659 0.114-0.12 0.184-0.253 0.184-0.368 0-0.165 0.051-0.196 0.545-0.418 0.304-0.133 0.564-0.228 0.577-0.209 0.019 0.019-0.621 1.977-1.413 4.36l-1.451 4.328-0.551 0.019c-0.684 0.019-0.703 0.070-0.196 0.577 0.577 0.57 1.356 0.874 2.642 1.014 2.129 0.241 4.132-0.184 5.076-1.077 0.469-0.444 0.456-0.501-0.089-0.501h-0.437l-1.502-4.505c-0.824-2.471-1.489-4.512-1.476-4.524 0.019-0.025 2.725-1.267 3.58-1.648l0.329-0.146 0.215 0.45c0.12 0.253 0.444 0.849 0.729 1.324 0.602 1.027 0.678 1.236 0.577 1.705-0.051 0.228-0.057 0.615-0.025 1.191 0.076 1.28 0.063 1.869-0.063 2.573-0.133 0.805-0.152 1.565-0.038 1.705 0.108 0.127 0.425 0.133 0.893 0.013 0.19-0.051 0.691-0.177 1.109-0.285 0.925-0.241 1.616-0.298 2.25-0.196 0.773 0.12 1.464 0.146 1.762 0.070 0.361-0.101 0.798-0.526 0.906-0.887 0.063-0.222 0.063-0.393 0-0.951-0.044-0.368-0.108-0.874-0.139-1.115-0.025-0.247-0.051-0.893-0.051-1.445-0.006-0.805 0.013-1.039 0.095-1.198 0.057-0.114 0.171-0.456 0.26-0.767 0.146-0.539 0.184-0.602 0.678-1.179 0.558-0.653 0.773-0.97 1.153-1.717 0.228-0.444 0.247-0.513 0.247-1.014-0.006-0.748-0.203-1.343-0.608-1.857-0.456-0.583-0.558-0.805-0.602-1.324l-0.038-0.463 2.23-1.521c1.223-0.836 2.256-1.527 2.288-1.54s-0.469 1.54-1.115 3.453c-0.646 1.907-1.204 3.479-1.236 3.492-0.038 0.013-0.063 0.101-0.063 0.19 0 0.095-0.101 0.475-0.228 0.849l-0.228 0.684h-0.532c-0.494 0-0.532 0.013-0.532 0.127 0 0.209 0.475 0.665 0.938 0.906 0.773 0.406 1.825 0.615 3.118 0.615 1.793 0 3.251-0.412 3.998-1.134 0.437-0.418 0.418-0.501-0.114-0.526l-0.431-0.019-1.502-4.467c-0.824-2.459-1.502-4.499-1.502-4.537-0.006-0.038 0.089-0.12 0.203-0.184 0.171-0.089 0.241-0.095 0.349-0.038 0.615 0.33 1.191-0.526 0.678-1.008-0.342-0.323-0.893-0.114-1.020 0.387l-0.070 0.279-0.786 0.361c-0.431 0.196-1.597 0.729-2.592 1.185-1.248 0.57-1.812 0.798-1.825 0.741-0.013-0.051 0.025-0.279 0.082-0.507 0.133-0.589 0.12-1.141-0.032-1.597-0.355-1.020-0.589-1.229-1.394-1.223-0.342 0-0.52 0.032-0.634 0.108zM16.697 5.209c0.558 0.196 1.495 0.203 1.806 0.006 0.234-0.152 0.621-0.19 0.83-0.082 0.26 0.139 0.38 0.532 0.418 1.362 0.032 0.672 0.019 0.868-0.108 1.4-0.19 0.849-0.482 1.648-0.684 1.907l-0.171 0.222-0.444-0.038c-0.399-0.032-0.463-0.051-0.627-0.234-0.177-0.203-0.184-0.209-0.139-0.748 0.025-0.298 0.070-0.989 0.095-1.527 0.025-0.596 0.076-1.039 0.127-1.128 0.070-0.127 0.063-0.171-0.032-0.272-0.152-0.165-0.222-0.152-0.463 0.095l-0.209 0.215 0.139 0.19c0.19 0.26 0.228 1.001 0.127 2.465-0.089 1.293-0.101 1.318-0.653 1.508-0.456 0.152-0.748 0.076-0.843-0.228-0.044-0.12-0.12-0.798-0.184-1.514-0.057-0.71-0.12-1.318-0.139-1.35s-0.051-0.26-0.076-0.507c-0.044-0.494-0.127-0.589-0.298-0.33-0.101 0.158-0.101 0.234-0.038 0.906 0.044 0.412 0.139 1.071 0.209 1.47s0.146 1.001 0.165 1.331l0.032 0.602-0.437 0.298c-0.482 0.329-0.779 0.431-0.887 0.291-0.032-0.044-0.152-0.355-0.253-0.684-0.19-0.596-0.697-1.92-0.881-2.332-0.133-0.279-0.241-0.228-0.279 0.133-0.019 0.165-0.101 0.38-0.177 0.482-0.076 0.108-0.139 0.215-0.139 0.247s0.114 0.209 0.253 0.393c0.304 0.406 0.887 1.584 1.065 2.154 0.215 0.672 0.209 0.843-0.051 0.95-0.101 0.044-0.348 0.203-0.545 0.355s-0.406 0.279-0.463 0.279c-0.133 0-0.374-0.253-0.577-0.602-0.082-0.139-0.425-0.729-0.76-1.305s-0.659-1.166-0.716-1.312c-0.133-0.329-0.139-0.843-0.019-1.077s0.482-0.558 0.672-0.615c0.406-0.12 0.577-0.291 0.862-0.893 0.342-0.71 0.501-0.849 1.242-1.103 0.9-0.304 1.014-0.368 1.508-0.855 0.26-0.26 0.564-0.513 0.665-0.564 0.266-0.139 0.634-0.127 1.077 0.038zM24.903 11.469v3.802h-1.267c-0.697 0-1.267-0.019-1.267-0.044 0-0.063 2.497-7.56 2.516-7.56 0.013 0 0.019 1.711 0.019 3.802zM26.677 11.438c0.672 2.021 1.236 3.713 1.255 3.751 0.019 0.063-0.26 0.082-1.28 0.082h-1.305v-3.815c0-2.186 0.025-3.789 0.057-3.758 0.032 0.038 0.602 1.717 1.274 3.739zM19.922 10.595c0.114 0.355 0.304 0.722 0.577 1.141 0.456 0.684 0.532 0.931 0.539 1.641 0 0.64-0.076 0.735-0.976 1.16-1.052 0.507-1.495 0.57-2.104 0.317-0.114-0.051-0.513-0.133-0.887-0.19-0.735-0.108-1.128-0.247-1.324-0.469-0.101-0.114-0.127-0.228-0.127-0.596 0-0.684 0.076-0.811 0.824-1.299 0.716-0.475 1.058-0.577 2.408-0.722l0.697-0.076 0.019-0.222c0.013-0.146-0.038-0.355-0.139-0.57l-0.158-0.342 0.196-0.146c0.114-0.082 0.222-0.146 0.247-0.146s0.12 0.234 0.209 0.52zM13.719 14.124c0.247 0.114 0.729 0.577 0.729 0.703 0 0.038 0.253 0.329 0.558 0.653 0.83 0.868 0.919 1.046 0.634 1.312-0.114 0.108-0.222 0.127-0.691 0.127-0.659 0-1.616-0.177-2.053-0.387-0.678-0.317-1.090-0.963-0.925-1.438 0.114-0.323 0.545-0.754 0.925-0.938 0.38-0.177 0.494-0.184 0.824-0.032zM15.341 14.467c0.215 0.45 0.469 0.792 0.532 0.729 0.019-0.019-0.006-0.127-0.063-0.241s-0.089-0.215-0.076-0.228c0.019-0.019 0.171 0.051 0.348 0.158 0.342 0.203 1.521 0.475 2.364 0.551 0.748 0.070 0.855 0.184 0.475 0.52-0.564 0.494-1.926 0.722-2.516 0.425-0.387-0.203-1.819-2.015-1.749-2.212 0.025-0.063 0.12-0.101 0.266-0.101 0.209 0 0.228 0.019 0.418 0.399zM18.25 19.789c0.032 2.173 0.051 2.332 0.279 2.243 0.158-0.063 0.19-0.564 0.076-1.179-0.101-0.57-0.139-2.262-0.063-2.75 0.076-0.45 0.184-0.215 0.228 0.501 0.025 0.38 0.089 1.438 0.152 2.351 0.057 0.912 0.089 1.73 0.063 1.819-0.044 0.19-0.444 0.418-0.722 0.418-0.101 0-0.26-0.057-0.349-0.127-0.171-0.133-0.253-0.482-0.329-1.426-0.089-1.090-0.133-1.223-0.285-0.855-0.076 0.19-0.063 0.767 0.038 1.812 0.032 0.279 0.019 0.406-0.038 0.437-0.044 0.032-0.551 0.057-1.122 0.063l-1.033 0.013v-1.61c0-1.724-0.025-1.838-0.279-1.318-0.095 0.19-0.133 0.456-0.171 1.198-0.057 1.058-0.209 1.698-0.45 1.914-0.152 0.133-0.564 0.279-0.798 0.279-0.241 0-0.253-0.437-0.032-1.172 0.19-0.64 0.545-1.781 0.64-2.053 0.146-0.425 0.539-0.786 1.001-0.912 0.209-0.057 0.431-0.108 0.494-0.108 0.082 0 0.101-0.032 0.070-0.114-0.025-0.057-0.063-0.19-0.089-0.291-0.038-0.165-0.082-0.196-0.393-0.266-0.45-0.101-1.179-0.513-1.077-0.615 0.051-0.051 0.127-0.051 0.279 0.006 0.716 0.253 1.901 0.469 2.351 0.431 0.425-0.044 0.526-0.101 1.027-0.551 0.196-0.177 0.387-0.304 0.425-0.291 0.057 0.019 0.082 0.602 0.108 2.154zM8.371 22.096l1.248 3.758h-2.585l0.006-3.853c0-2.116 0.019-3.802 0.038-3.751 0.025 0.051 0.602 1.787 1.293 3.846zM6.59 22.052v3.802h-1.299c-0.716 0-1.299-0.013-1.299-0.025s0.57-1.711 1.267-3.777c0.697-2.066 1.267-3.764 1.267-3.777s0.013-0.025 0.032-0.025c0.019 0 0.032 1.711 0.032 3.802z"></path>
<path d="M18.718 12.578c0.013 0.101 0.057 0.304 0.095 0.444s0.070 0.532 0.070 0.868c0 0.342 0.025 0.621 0.057 0.621 0.101 0 0.133-0.184 0.133-0.722 0-0.545-0.114-1.065-0.285-1.274-0.101-0.12-0.101-0.12-0.070 0.063z"></path>
<path d="M16.602 12.528c-0.209 0.025-0.38 0.114-0.38 0.203 0 0.019 0.234 0.032 0.52 0.019 0.291-0.013 0.602 0.006 0.703 0.044 0.165 0.063 0.171 0.082 0.171 0.558 0 0.272-0.025 0.526-0.051 0.564-0.095 0.152-0.342 0.215-0.817 0.222l-0.494 0.006 0.253 0.082c0.139 0.051 0.444 0.089 0.684 0.089 0.418 0.006 0.431 0 0.551-0.203 0.101-0.165 0.127-0.317 0.127-0.779 0-0.754-0.076-0.855-0.653-0.836-0.215 0-0.494 0.019-0.615 0.032z"></path>
<path d="M27.837 18.11c-0.317 0.158-0.342 0.19-0.501 0.615-1.552 4.119-5.304 7.015-9.733 7.503-1.16 0.133-2.357 0.070-3.612-0.19l-0.615-0.127-0.317 0.158c-0.171 0.089-0.329 0.19-0.348 0.222-0.076 0.114 1.153 0.406 2.307 0.545 2.268 0.279 4.638-0.133 6.748-1.166 2.579-1.261 4.657-3.403 5.798-5.963 0.298-0.653 0.665-1.698 0.627-1.736-0.013-0.013-0.177 0.051-0.355 0.139z"></path>
</symbol>
</defs>
</svg>
